<svg xmlns="http://www.w3.org/2000/svg" width="1200" height="630" viewBox="0 0 1200 630">
  <defs>
    <linearGradient id="bg" x1="0%" y1="0%" x2="100%" y2="100%">
      <stop offset="0%" style="stop-color:#070709"/>
      <stop offset="100%" style="stop-color:#0e0e18"/>
    </linearGradient>
    <linearGradient id="green" x1="0%" y1="0%" x2="100%" y2="0%">
      <stop offset="0%" style="stop-color:#00e676;stop-opacity:0.2"/>
      <stop offset="100%" style="stop-color:#00e676;stop-opacity:0.05"/>
    </linearGradient>
    <linearGradient id="accent" x1="0%" y1="0%" x2="100%" y2="0%">
      <stop offset="0%" style="stop-color:#448aff"/>
      <stop offset="100%" style="stop-color:#00e676"/>
    </linearGradient>
  </defs>

  <!-- Background -->
  <rect width="1200" height="630" fill="url(#bg)"/>

  <!-- Verdict banner (green) -->
  <rect x="40" y="40" width="1120" height="90" rx="14" fill="url(#green)" stroke="#00e676" stroke-width="1.5" stroke-opacity="0.5"/>
  <text x="70" y="97" font-family="system-ui,sans-serif" font-size="32" font-weight="900" fill="#00e676" letter-spacing="-1">ENTER NOW ▲ LONG</text>
  <text x="600" y="97" font-family="system-ui,sans-serif" font-size="14" fill="rgba(255,255,255,0.6)">Entry $68,400 · SL $66,800 · TP1 $70,200</text>

  <!-- Price bar -->
  <rect x="40" y="152" width="1120" height="60" rx="12" fill="#0e0e12" stroke="rgba(255,255,255,0.07)" stroke-width="1"/>
  <text x="72" y="191" font-family="system-ui,sans-serif" font-size="28" font-weight="800" fill="#f0f0f0" letter-spacing="-1">$68,421.50</text>
  <rect x="250" y="174" width="72" height="24" rx="6" fill="rgba(0,230,118,0.12)"/>
  <text x="262" y="191" font-family="system-ui,sans-serif" font-size="13" font-weight="700" fill="#00e676">+2.34%</text>
  <circle cx="1090" cy="182" r="5" fill="#00e676"/>
  <text x="1102" y="187" font-family="system-ui,sans-serif" font-size="12" fill="rgba(255,255,255,0.5)">WS live</text>

  <!-- Sentiment card -->
  <rect x="40" y="234" width="540" height="100" rx="12" fill="#0e0e12" stroke="rgba(255,255,255,0.07)" stroke-width="1"/>
  <text x="70" y="262" font-family="system-ui,sans-serif" font-size="10" fill="#666" letter-spacing="1">FEAR &amp; GREED</text>
  <text x="70" y="300" font-family="system-ui,sans-serif" font-size="38" font-weight="800" fill="#ff3d57">38</text>
  <text x="130" y="300" font-family="system-ui,sans-serif" font-size="16" fill="rgba(255,255,255,0.6)">Fear</text>
  <rect x="70" y="314" width="450" height="4" rx="2" fill="rgba(255,255,255,0.05)"/>
  <rect x="70" y="314" width="171" height="4" rx="2" fill="#ff3d57"/>

  <!-- On-chain panel -->
  <rect x="620" y="234" width="540" height="100" rx="12" fill="#0e0e12" stroke="rgba(255,255,255,0.07)" stroke-width="1"/>
  <text x="650" y="262" font-family="system-ui,sans-serif" font-size="10" fill="#666" letter-spacing="1">ON-CHAIN</text>
  <rect x="650" y="272" width="150" height="50" rx="8" fill="#14141a"/>
  <text x="665" y="289" font-family="system-ui,sans-serif" font-size="9" fill="#666">HASHRATE</text>
  <text x="665" y="307" font-family="system-ui,sans-serif" font-size="13" font-weight="800" fill="#f0f0f0">782 EH/s</text>
  <rect x="815" y="272" width="150" height="50" rx="8" fill="#14141a"/>
  <text x="830" y="289" font-family="system-ui,sans-serif" font-size="9" fill="#666">MEMPOOL</text>
  <text x="830" y="307" font-family="system-ui,sans-serif" font-size="13" font-weight="800" fill="#f0f0f0">12,450 tx</text>
  <rect x="980" y="272" width="150" height="50" rx="8" fill="#14141a"/>
  <text x="995" y="289" font-family="system-ui,sans-serif" font-size="9" fill="#666">FAST FEE</text>
  <text x="995" y="307" font-family="system-ui,sans-serif" font-size="13" font-weight="800" fill="#f0f0f0">18 sat/vB</text>

  <!-- Advanced panel divider -->
  <line x1="40" y1="360" x2="470" y2="360" stroke="rgba(255,255,255,0.07)" stroke-width="1"/>
  <text x="490" y="365" font-family="system-ui,sans-serif" font-size="11" fill="#555">Advanced signal panel</text>
  <line x1="730" y1="360" x2="1160" y2="360" stroke="rgba(255,255,255,0.07)" stroke-width="1"/>

  <!-- Quant card -->
  <rect x="40" y="380" width="540" height="80" rx="12" fill="#0e0e12" stroke="rgba(68,138,255,0.2)" stroke-width="1"/>
  <text x="66" y="410" font-family="system-ui,sans-serif" font-size="13" font-weight="700" fill="rgba(255,255,255,0.8)">Quant Scoring</text>
  <text x="66" y="434" font-family="system-ui,sans-serif" font-size="12" fill="#00e676">62.0% L</text>
  <text x="500" y="434" font-family="system-ui,sans-serif" font-size="12" fill="#ff3d57" text-anchor="end">38.0% S</text>
  <rect x="66" y="444" width="488" height="6" rx="3" fill="rgba(255,255,255,0.05)"/>
  <rect x="66" y="444" width="303" height="6" rx="3" fill="#00e676"/>

  <!-- Command card -->
  <rect x="620" y="380" width="540" height="180" rx="12" fill="#0e0e12" stroke="rgba(0,230,118,0.2)" stroke-width="1"/>
  <text x="646" y="412" font-family="system-ui,sans-serif" font-size="20" font-weight="900" fill="#00e676">▲ LONG</text>
  <text x="1134" y="412" font-family="system-ui,sans-serif" font-size="12" fill="rgba(255,255,255,0.5)" text-anchor="end">Confidence 72%</text>
  <text x="646" y="452" font-family="system-ui,sans-serif" font-size="12" fill="rgba(255,255,255,0.55)">Entry $68,400   ·   SL $66,800   ·   TP1 $70,200   ·   R:R 1:2.4</text>
  <text x="646" y="486" font-family="system-ui,sans-serif" font-size="11" fill="rgba(255,255,255,0.4)">Bullish structure · funding neutral · Fear &amp; Greed favorable</text>
  <text x="646" y="534" font-family="system-ui,sans-serif" font-size="10" fill="rgba(255,255,255,0.25)">sample data — UI demonstration</text>

  <!-- Title box -->
  <rect x="40" y="480" width="540" height="110" rx="14" fill="rgba(68,138,255,0.06)" stroke="rgba(68,138,255,0.25)" stroke-width="1"/>
  <text x="310" y="522" font-family="system-ui,sans-serif" font-size="22" font-weight="900" fill="#f0f0f0" text-anchor="middle" letter-spacing="-0.5">Crypto Trading Dashboard</text>
  <text x="310" y="550" font-family="system-ui,sans-serif" font-size="13" fill="rgba(255,255,255,0.5)" text-anchor="middle">Next.js · TypeScript · Tailwind · WebSocket</text>
  <rect x="230" y="562" width="160" height="30" rx="8" fill="url(#accent)" opacity="0.9"/>
  <text x="310" y="582" font-family="system-ui,sans-serif" font-size="13" font-weight="800" fill="#07120a" text-anchor="middle">LIVE DEMO</text>
</svg>
